HIERARCHY
ROOT SpineBase
{
  OFFSET 0.000000 0.000000 0.000000
  CHANNELS 6 Xposition Yposition Zposition Zrotation Xrotation Yrotation
  JOINT SpineMid
  {
    OFFSET 0.000000 28.633918 0.000000
    CHANNELS 3 Zrotation Xrotation Yrotation
    JOINT SpineShoulder
    {
      OFFSET -0.008193 21.283594 -0.711295
      CHANNELS 3 Zrotation Xrotation Yrotation
      JOINT Neck
      {
        OFFSET -0.014333 7.048094 -0.538881
        CHANNELS 3 Zrotation Xrotation Yrotation
        JOINT Head
        {
          OFFSET -2.513426 11.610044 -0.248851
          CHANNELS 3 Zrotation Xrotation Yrotation
          End Site
          {
            OFFSET 0 0 0
          }
        }
      }
      JOINT ShoulderLeft
      {
        OFFSET -15.624161 -2.551097 5.101524
        CHANNELS 3 Zrotation Xrotation Yrotation
        JOINT ElbowLeft
        {
          OFFSET -3.927392 -24.984194 2.503808
          CHANNELS 3 Zrotation Xrotation Yrotation
          JOINT WristLeft
          {
            OFFSET -2.649974 -21.950744 -3.706470
            CHANNELS 3 Zrotation Xrotation Yrotation
            JOINT HandLeft
            {
              OFFSET 1.072252 -6.654227 -1.978310
              CHANNELS 3 Zrotation Xrotation Yrotation
              JOINT HandTipLeft
              {
                OFFSET -0.071250 -6.420841 -1.923041
                CHANNELS 3 Zrotation Xrotation Yrotation
                End Site
                {
                  OFFSET 0 0 0
                }
              }
              JOINT ThumbLeft
              {
                OFFSET -3.088818 0.093851 -0.582215
                CHANNELS 3 Zrotation Xrotation Yrotation
                End Site
                {
                  OFFSET 0 0 0
                }
              }
            }
          }
        }
      }
      JOINT ShoulderRight
      {
        OFFSET 15.179029 -2.664335 -5.729587
        CHANNELS 3 Zrotation Xrotation Yrotation
        JOINT ElbowRight
        {
          OFFSET 5.095600 -25.040248 -3.353601
          CHANNELS 3 Zrotation Xrotation Yrotation
          JOINT WristRight
          {
            OFFSET -0.899887 -20.674077 -5.958894
            CHANNELS 3 Zrotation Xrotation Yrotation
            JOINT HandRight
            {
              OFFSET -2.279633 -8.485965 -1.398742
              CHANNELS 3 Zrotation Xrotation Yrotation
              JOINT HandTipRight
              {
                OFFSET -0.400664 -6.881103 -1.184979
                CHANNELS 3 Zrotation Xrotation Yrotation
                End Site
                {
                  OFFSET 0 0 0
                }
              }
              JOINT ThumbRight
              {
                OFFSET -2.935538 1.896078 -0.281356
                CHANNELS 3 Zrotation Xrotation Yrotation
                End Site
                {
                  OFFSET 0 0 0
                }
              }
            }
          }
        }
      }
    }
  }
  JOINT HipLeft
  {
    OFFSET -5.899053 0.385868 -1.453705
    CHANNELS 3 Zrotation Xrotation Yrotation
    JOINT KneeLeft
    {
      OFFSET -7.348242 -28.484088 5.581258
      CHANNELS 3 Zrotation Xrotation Yrotation
      JOINT AnkleLeft
      {
        OFFSET -1.552745 -38.684311 7.241636
        CHANNELS 3 Zrotation Xrotation Yrotation
        JOINT FootLeft
        {
          OFFSET -3.242457 -3.749321 -12.564973
          CHANNELS 3 Zrotation Xrotation Yrotation
          End Site
          {
            OFFSET 0 0 0
          }
        }
      }
    }
  }
  JOINT HipRight
  {
    OFFSET 5.568947 0.952443 -5.085316
    CHANNELS 3 Zrotation Xrotation Yrotation
    JOINT KneeRight
    {
      OFFSET 6.436856 -34.191876 2.562130
      CHANNELS 3 Zrotation Xrotation Yrotation
      JOINT AnkleRight
      {
        OFFSET 1.568243 -32.062458 6.000313
        CHANNELS 3 Zrotation Xrotation Yrotation
        JOINT FootRight
        {
          OFFSET -3.529408 -3.280344 -13.536343
          CHANNELS 3 Zrotation Xrotation Yrotation
          End Site
          {
            OFFSET 0 0 0
          }
        }
      }
    }
  }
}
MOTION
Frames: 10
Frame Time: 0.033333
18.781063 73.801471 366.931589 -0.000000 0.000000 17.571610 0.000000 0.000000 -17.571610 -0.000000 0.000000 0.000000 -0.000000 0.000000 0.000000 0.000000 0.000000 0.000000 -0.000000 0.000000 0.000000 -0.000000 0.000000 0.000000 -0.000000 0.000000 0.000000 -0.000000 0.000000 0.000000 0.000000 0.000000 0.000000 0.000000 0.000000 0.000000 -0.000000 0.000000 0.000000 -0.000000 0.000000 0.000000 -0.000000 0.000000 0.000000 -0.000000 0.000000 0.000000 0.000000 0.000000 0.000000 0.000000 0.000000 0.000000 0.000000 0.000000 -17.571610 -0.000000 0.000000 0.000000 -0.000000 0.000000 0.000000 0.000000 0.000000 0.000000 0.000000 0.000000 -17.571610 -0.000000 0.000000 0.000000 -0.000000 0.000000 0.000000 0.000000 0.000000 0.000000
18.760054 73.759878 366.913584 0.023415 -0.008375 17.625761 -0.019780 0.015072 -17.625756 -0.000000 0.000000 0.000000 -0.000000 0.000000 0.000000 0.000000 0.000000 0.000000 -0.000000 0.000000 0.000000 -0.000000 0.000000 0.000000 -0.000000 0.000000 0.000000 -0.000000 0.000000 0.000000 0.000000 0.000000 0.000000 0.000000 0.000000 0.000000 -0.000000 0.000000 0.000000 -0.000000 0.000000 0.000000 -0.000000 0.000000 0.000000 -0.225524 2.131932 -0.080848 0.000000 0.000000 0.000000 0.000000 0.000000 0.000000 -0.019780 0.015072 -17.625756 -0.000000 0.000000 0.000000 1.776637 -8.975577 2.712598 0.000000 0.000000 0.000000 0.702704 0.731055 -17.425499 -0.474984 -0.899441 -0.208690 1.429514 -6.827895 2.081190 0.000000 0.000000 0.000000
18.727831 73.722623 366.896949 0.037165 -0.019061 17.663811 -0.029629 0.029439 -17.663797 -0.000000 0.000000 0.000000 -0.000000 0.000000 0.000000 0.000000 0.000000 0.000000 -0.000000 0.000000 0.000000 -0.000000 0.000000 0.000000 0.736274 -0.266508 -0.260041 -1.121889 -1.310285 0.395212 0.000000 0.000000 0.000000 0.000000 0.000000 0.000000 -0.000000 0.000000 0.000000 -0.707742 0.568372 0.182456 0.705964 -0.570580 -0.175430 -0.568203 4.060758 -0.117797 0.000000 0.000000 0.000000 0.000000 0.000000 0.000000 -0.029629 0.029439 -17.663797 -0.000000 0.000000 0.000000 3.982975 -17.583291 5.729131 0.000000 0.000000 0.000000 1.356022 1.432169 -17.283759 -0.118610 -2.513579 -0.271063 2.323620 -12.860786 4.215712 0.000000 0.000000 0.000000
18.684393 73.689705 366.881683 0.041220 -0.032055 17.685697 -0.029534 0.043063 -17.685674 -0.000000 0.000000 0.000000 -0.000000 0.000000 0.000000 0.000000 0.000000 0.000000 -0.000000 0.000000 0.000000 -0.000000 0.000000 0.000000 0.832625 -0.284341 -0.291170 -1.183790 -2.458051 0.428925 0.000000 0.000000 0.000000 0.000000 0.000000 0.000000 -0.000000 0.000000 0.000000 -1.016731 0.798215 0.264764 1.913957 -1.063581 -0.315725 -1.943610 6.021476 -0.018362 0.000000 0.000000 0.000000 0.000000 0.000000 0.000000 -0.029534 0.043063 -17.685674 0.533981 -0.900348 0.140116 5.567670 -23.513430 8.307149 0.000000 0.000000 0.000000 1.922435 2.070104 -17.153420 -0.221066 -3.518515 -0.392337 3.810967 -18.506695 6.345200 0.000000 0.000000 0.000000
18.629740 73.661125 366.867786 0.035561 -0.047356 17.691345 -0.019488 0.055923 -17.691321 -0.000000 0.000000 0.000000 -0.000000 0.000000 0.000000 0.000000 0.000000 0.000000 -0.000000 0.000000 0.000000 -0.000000 0.000000 0.000000 0.744520 -0.222935 -0.255705 -0.911353 -3.918473 0.355473 0.000000 0.000000 0.000000 0.000000 0.000000 0.000000 0.864118 -0.252629 -0.165032 -2.157096 1.232545 0.513218 2.205322 -1.239804 -0.386125 -2.557736 7.472870 0.057603 0.000000 0.000000 0.000000 0.000000 0.000000 0.000000 -0.019488 0.055923 -17.691321 0.628257 -1.111762 0.168063 6.980235 -27.322680 10.148911 0.000000 0.000000 0.000000 2.363627 2.608753 -17.040717 -0.289894 -4.320011 -0.489782 5.048341 -22.516216 7.990053 0.000000 0.000000 0.000000
18.563871 73.636883 366.855257 0.020178 -0.064956 17.680674 0.000503 0.068016 -17.680663 -0.000000 0.000000 0.000000 -0.000000 0.000000 0.000000 0.000000 0.000000 0.000000 -0.000000 0.000000 0.000000 -0.000000 0.000000 0.000000 -0.000000 0.000000 0.000000 0.142358 -5.752446 0.028837 0.000000 0.000000 0.000000 0.000000 0.000000 0.000000 0.974656 -0.263154 -0.181591 -2.500197 1.384217 0.595783 2.305058 -1.315338 -0.440817 -3.145243 8.619238 0.175401 0.000000 0.000000 0.000000 0.000000 0.000000 0.000000 0.000503 0.068016 -17.680663 0.679078 -1.276781 0.185598 7.235809 -27.951311 10.555624 0.000000 0.000000 0.000000 2.645409 3.013436 -16.950572 -0.288962 -4.885841 -0.552300 5.635414 -24.364293 8.743903 0.000000 0.000000 0.000000
18.474740 73.614861 366.847956 -0.012910 -0.093214 17.644562 0.040557 0.084915 -17.644602 -0.000000 0.000000 0.000000 -0.000000 0.000000 0.000000 0.000000 0.000000 0.000000 0.752619 0.357791 0.016855 -0.752739 -0.357539 -0.021553 -0.000000 0.000000 0.000000 0.891649 -10.029455 -0.079326 0.000000 0.000000 0.000000 0.000000 0.000000 0.000000 1.057273 -0.271423 -0.194029 -2.745220 1.670367 0.649196 1.671520 -1.420875 -0.400924 -2.701493 9.802589 0.122856 0.000000 0.000000 0.000000 0.000000 0.000000 0.000000 0.040557 0.084915 -17.644602 0.650861 -1.438206 0.187344 5.413628 -23.005275 8.289625 0.000000 0.000000 0.000000 2.440352 2.985968 -16.945971 -0.109900 -4.801275 -0.520668 4.504677 -21.079115 6.315641 0.000000 0.000000 0.000000
18.373228 73.599902 366.842186 -0.054864 -0.119994 17.576462 0.088539 0.097824 -17.576595 -0.000000 0.000000 0.000000 -0.000000 0.000000 0.000000 0.000000 0.000000 0.000000 0.812844 0.448329 0.007817 -0.812930 -0.448173 -0.014177 -0.879513 -0.347949 0.203181 2.333859 -10.521318 -0.411304 0.000000 0.000000 0.000000 0.000000 0.000000 0.000000 1.083481 -0.241428 -0.191645 -2.902052 1.668040 0.684311 1.801114 -1.451052 -0.435088 -4.439779 11.043430 0.539145 0.000000 0.000000 0.000000 0.000000 0.000000 0.000000 0.088539 0.097824 -17.576595 0.587255 -1.538624 0.179168 2.683929 -13.749726 4.614885 0.000000 0.000000 0.000000 2.337278 3.015590 -16.891367 0.154806 -4.730205 -0.468083 3.249971 -17.563079 4.549727 0.000000 0.000000 0.000000
18.279149 73.585840 366.837059 -0.094181 -0.143126 17.515620 0.132891 0.108145 -17.515864 -0.000000 0.000000 0.000000 -0.000000 0.000000 0.000000 0.000000 0.000000 0.000000 0.834409 0.520976 -0.002070 -0.834425 -0.520951 -0.005517 -1.776332 -0.295604 0.477488 3.186835 -9.601230 -0.714828 0.000000 0.000000 0.000000 0.000000 0.000000 0.000000 1.057197 -0.176044 -0.175499 -3.003068 1.339691 0.711058 1.025834 -0.823522 -0.449335 -4.028748 8.307857 0.629397 0.000000 0.000000 0.000000 0.000000 0.000000 0.000000 0.132891 0.108145 -17.515864 0.600864 -1.543931 0.182132 1.552894 -9.440744 3.382518 0.000000 0.000000 0.000000 2.254513 3.114938 -16.831315 0.417018 -4.738305 -0.429110 2.461796 -15.714185 5.063718 0.000000 0.000000 0.000000
18.188110 73.575211 366.820025 -0.122431 -0.157364 17.437512 0.163961 0.113443 -17.437842 -0.000000 0.000000 0.000000 -0.000000 0.000000 0.000000 0.000000 0.000000 0.000000 0.792678 0.595547 -0.018327 -0.792531 -0.595744 0.010087 -2.446292 0.043651 0.737807 3.191513 -8.892970 -0.838581 0.000000 0.000000 0.000000 0.000000 0.000000 0.000000 1.012550 -0.092172 -0.153296 -3.009741 1.137084 0.703380 1.028181 -0.642468 -0.477670 -3.777195 6.385668 0.617769 0.000000 0.000000 0.000000 0.000000 0.000000 0.000000 0.163961 0.113443 -17.437842 0.573646 -1.432168 0.171678 0.923243 -6.929394 2.835290 0.000000 0.000000 0.000000 2.154869 3.405531 -16.726188 0.817178 -5.027767 -0.396564 2.686604 -17.390747 6.993729 0.000000 0.000000 0.000000
